<mxfile host="app.diagrams.net" agent="Mozilla/5.0 (Windows NT 10.0; Win64; x64) AppleWebKit/537.36 (KHTML, like Gecko) Chrome/130.0.0.0 Safari/537.36 Edg/130.0.0.0" version="24.8.1">
  <diagram name="第 1 页" id="hZs13M3GJtKdBzcRhd1a">
    <mxGraphModel dx="1970" dy="1133" grid="1" gridSize="10" guides="1" tooltips="1" connect="1" arrows="1" fold="1" page="1" pageScale="1" pageWidth="827" pageHeight="1169" math="0" shadow="0">
      <root>
        <mxCell id="0" />
        <mxCell id="1" parent="0" />
        <mxCell id="NgWxv2v9otWXy7bS2Y64-9" value="会员中心" style="rounded=0;whiteSpace=wrap;html=1;fillColor=#dae8fc;strokeColor=#6c8ebf;fontSize=25;fontStyle=1" parent="1" vertex="1">
          <mxGeometry x="80" y="170" width="140" height="50" as="geometry" />
        </mxCell>
        <mxCell id="NgWxv2v9otWXy7bS2Y64-10" value="会员中心" style="rounded=0;whiteSpace=wrap;html=1;fillColor=#dae8fc;strokeColor=#6c8ebf;fontSize=25;fontStyle=1" parent="1" vertex="1">
          <mxGeometry x="238" y="170" width="140" height="50" as="geometry" />
        </mxCell>
        <mxCell id="NgWxv2v9otWXy7bS2Y64-11" value="会员中心" style="rounded=0;whiteSpace=wrap;html=1;fillColor=#dae8fc;strokeColor=#6c8ebf;fontSize=25;fontStyle=1" parent="1" vertex="1">
          <mxGeometry x="396" y="170" width="140" height="50" as="geometry" />
        </mxCell>
        <mxCell id="NgWxv2v9otWXy7bS2Y64-12" value="会员中心" style="rounded=0;whiteSpace=wrap;html=1;fillColor=#dae8fc;strokeColor=#6c8ebf;fontSize=25;fontStyle=1" parent="1" vertex="1">
          <mxGeometry x="554" y="170" width="140" height="50" as="geometry" />
        </mxCell>
        <mxCell id="NgWxv2v9otWXy7bS2Y64-13" value="会员中心" style="rounded=0;whiteSpace=wrap;html=1;fillColor=#dae8fc;strokeColor=#6c8ebf;fontSize=25;fontStyle=1" parent="1" vertex="1">
          <mxGeometry x="712" y="170" width="140" height="50" as="geometry" />
        </mxCell>
        <mxCell id="NgWxv2v9otWXy7bS2Y64-14" value="会员中心" style="rounded=0;whiteSpace=wrap;html=1;fillColor=#dae8fc;strokeColor=#6c8ebf;fontSize=25;fontStyle=1" parent="1" vertex="1">
          <mxGeometry x="870" y="170" width="140" height="50" as="geometry" />
        </mxCell>
        <mxCell id="NgWxv2v9otWXy7bS2Y64-15" value="会员中心" style="rounded=0;whiteSpace=wrap;html=1;fillColor=#dae8fc;strokeColor=#6c8ebf;fontSize=25;fontStyle=1" parent="1" vertex="1">
          <mxGeometry x="1028" y="170" width="140" height="50" as="geometry" />
        </mxCell>
        <mxCell id="NgWxv2v9otWXy7bS2Y64-16" value="会员中心" style="rounded=0;whiteSpace=wrap;html=1;fillColor=#dae8fc;strokeColor=#6c8ebf;fontSize=25;fontStyle=1" parent="1" vertex="1">
          <mxGeometry x="1186" y="170" width="140" height="50" as="geometry" />
        </mxCell>
        <mxCell id="NgWxv2v9otWXy7bS2Y64-17" value="会员中心" style="rounded=0;whiteSpace=wrap;html=1;fillColor=#dae8fc;strokeColor=#6c8ebf;fontSize=25;fontStyle=1" parent="1" vertex="1">
          <mxGeometry x="1344" y="170" width="140" height="50" as="geometry" />
        </mxCell>
        <mxCell id="NgWxv2v9otWXy7bS2Y64-18" value="会员中心" style="rounded=0;whiteSpace=wrap;html=1;fillColor=#dae8fc;strokeColor=#6c8ebf;fontSize=25;fontStyle=1" parent="1" vertex="1">
          <mxGeometry x="1502" y="170" width="140" height="50" as="geometry" />
        </mxCell>
        <mxCell id="NgWxv2v9otWXy7bS2Y64-19" value="会员中心" style="rounded=0;whiteSpace=wrap;html=1;fillColor=#dae8fc;strokeColor=#6c8ebf;fontSize=25;fontStyle=1" parent="1" vertex="1">
          <mxGeometry x="1660" y="170" width="140" height="50" as="geometry" />
        </mxCell>
        <mxCell id="NgWxv2v9otWXy7bS2Y64-125" value="" style="group" parent="1" vertex="1" connectable="0">
          <mxGeometry x="80" y="240" width="140" height="150" as="geometry" />
        </mxCell>
        <mxCell id="NgWxv2v9otWXy7bS2Y64-126" value="&lt;font style=&quot;font-size: 18px;&quot;&gt;&lt;b&gt;活动服务&lt;/b&gt;&lt;/font&gt;&lt;br&gt;shmall-activity-service" style="rounded=0;whiteSpace=wrap;html=1;fillColor=#fff2cc;strokeColor=#d6b656;" parent="NgWxv2v9otWXy7bS2Y64-125" vertex="1">
          <mxGeometry width="140" height="40" as="geometry" />
        </mxCell>
        <mxCell id="NgWxv2v9otWXy7bS2Y64-127" value="&lt;span style=&quot;font-size: 18px;&quot;&gt;&lt;b&gt;通用服务&lt;/b&gt;&lt;/span&gt;&lt;br&gt;shmall-activity-service" style="rounded=0;whiteSpace=wrap;html=1;fillColor=#fff2cc;strokeColor=#d6b656;verticalAlign=top;" parent="NgWxv2v9otWXy7bS2Y64-125" vertex="1">
          <mxGeometry y="50" width="140" height="100" as="geometry" />
        </mxCell>
        <mxCell id="NgWxv2v9otWXy7bS2Y64-128" value="" style="group" parent="NgWxv2v9otWXy7bS2Y64-125" vertex="1" connectable="0">
          <mxGeometry x="5" y="100" width="130" height="30" as="geometry" />
        </mxCell>
        <mxCell id="NgWxv2v9otWXy7bS2Y64-129" value="登录鉴权" style="rounded=0;whiteSpace=wrap;html=1;" parent="NgWxv2v9otWXy7bS2Y64-128" vertex="1">
          <mxGeometry width="60" height="30" as="geometry" />
        </mxCell>
        <mxCell id="NgWxv2v9otWXy7bS2Y64-130" value="登录鉴权" style="rounded=0;whiteSpace=wrap;html=1;" parent="NgWxv2v9otWXy7bS2Y64-128" vertex="1">
          <mxGeometry x="70" width="60" height="30" as="geometry" />
        </mxCell>
        <mxCell id="NgWxv2v9otWXy7bS2Y64-156" value="会员中心" style="rounded=0;whiteSpace=wrap;html=1;fillColor=#fff2cc;strokeColor=#d6b656;fontSize=25;fontStyle=1" parent="1" vertex="1">
          <mxGeometry x="238" y="240" width="140" height="320" as="geometry" />
        </mxCell>
        <mxCell id="NgWxv2v9otWXy7bS2Y64-157" value="会员中心" style="rounded=0;whiteSpace=wrap;html=1;fillColor=#fff2cc;strokeColor=#d6b656;fontSize=25;fontStyle=1" parent="1" vertex="1">
          <mxGeometry x="396" y="240" width="140" height="250" as="geometry" />
        </mxCell>
        <mxCell id="NgWxv2v9otWXy7bS2Y64-158" value="会员中心" style="rounded=0;whiteSpace=wrap;html=1;fillColor=#fff2cc;strokeColor=#d6b656;fontSize=25;fontStyle=1" parent="1" vertex="1">
          <mxGeometry x="554" y="240" width="140" height="340" as="geometry" />
        </mxCell>
        <mxCell id="NgWxv2v9otWXy7bS2Y64-159" value="会员中心" style="rounded=0;whiteSpace=wrap;html=1;fillColor=#fff2cc;strokeColor=#d6b656;fontSize=25;fontStyle=1" parent="1" vertex="1">
          <mxGeometry x="712" y="240" width="140" height="340" as="geometry" />
        </mxCell>
        <mxCell id="NgWxv2v9otWXy7bS2Y64-166" value="" style="group;fillColor=#fff2cc;strokeColor=#d6b656;" parent="1" vertex="1" connectable="0">
          <mxGeometry x="870" y="240" width="930" height="470" as="geometry" />
        </mxCell>
        <mxCell id="NgWxv2v9otWXy7bS2Y64-160" value="会员中心" style="rounded=0;whiteSpace=wrap;html=1;fillColor=#fff2cc;strokeColor=#d6b656;fontSize=25;fontStyle=1" parent="NgWxv2v9otWXy7bS2Y64-166" vertex="1">
          <mxGeometry width="140" height="470" as="geometry" />
        </mxCell>
        <mxCell id="NgWxv2v9otWXy7bS2Y64-161" value="会员中心" style="rounded=0;whiteSpace=wrap;html=1;fillColor=#fff2cc;strokeColor=#d6b656;fontSize=25;fontStyle=1" parent="NgWxv2v9otWXy7bS2Y64-166" vertex="1">
          <mxGeometry x="158" width="140" height="470" as="geometry" />
        </mxCell>
        <mxCell id="NgWxv2v9otWXy7bS2Y64-162" value="会员中心" style="rounded=0;whiteSpace=wrap;html=1;fillColor=#fff2cc;strokeColor=#d6b656;fontSize=25;fontStyle=1" parent="NgWxv2v9otWXy7bS2Y64-166" vertex="1">
          <mxGeometry x="316" width="140" height="470" as="geometry" />
        </mxCell>
        <mxCell id="NgWxv2v9otWXy7bS2Y64-163" value="会员中心" style="rounded=0;whiteSpace=wrap;html=1;fillColor=#fff2cc;strokeColor=#d6b656;fontSize=25;fontStyle=1" parent="NgWxv2v9otWXy7bS2Y64-166" vertex="1">
          <mxGeometry x="474" width="140" height="470" as="geometry" />
        </mxCell>
        <mxCell id="NgWxv2v9otWXy7bS2Y64-164" value="会员中心" style="rounded=0;whiteSpace=wrap;html=1;fillColor=#fff2cc;strokeColor=#d6b656;fontSize=25;fontStyle=1" parent="NgWxv2v9otWXy7bS2Y64-166" vertex="1">
          <mxGeometry x="632" width="140" height="470" as="geometry" />
        </mxCell>
        <mxCell id="NgWxv2v9otWXy7bS2Y64-165" value="会员中心" style="rounded=0;whiteSpace=wrap;html=1;fillColor=#fff2cc;strokeColor=#d6b656;fontSize=25;fontStyle=1" parent="NgWxv2v9otWXy7bS2Y64-166" vertex="1">
          <mxGeometry x="790" width="140" height="470" as="geometry" />
        </mxCell>
      </root>
    </mxGraphModel>
  </diagram>
</mxfile>
